<?xml version="1.0" standalone="no"?>
<!DOCTYPE svg PUBLIC "-//W3C//DTD SVG 20010904//EN"
 "http://www.w3.org/TR/2001/REC-SVG-20010904/DTD/svg10.dtd">
<svg version="1.0" xmlns="http://www.w3.org/2000/svg"
 width="512.000000pt" height="512.000000pt" viewBox="0 0 512.000000 512.000000"
 preserveAspectRatio="xMidYMid meet">
<metadata>
Created by potrace 1.14, written by Peter Selinger 2001-2017
</metadata>
<g transform="translate(0.000000,512.000000) scale(0.100000,-0.100000)"
fill="#000000" stroke="none">
<path d="M700 5023 c-90 -31 -159 -97 -199 -188 -18 -41 -22 -154 -8 -201 50
-170 225 -268 393 -219 94 27 162 85 206 174 34 70 32 186 -5 265 -31 67 -84
121 -152 155 -61 30 -169 37 -235 14z"/>
<path d="M4205 5028 c-66 -12 -169 -62 -225 -108 -33 -27 -58 -39 -94 -44
-174 -23 -297 -171 -282 -341 11 -126 89 -231 205 -272 59 -22 73 -22 500 -23
271 0 457 4 486 10 64 14 147 70 183 122 43 62 66 147 59 219 -4 32 -10 66
-15 76 -5 10 -15 30 -22 45 -40 86 -167 164 -271 167 -15 1 -37 12 -51 26 -37
36 -136 94 -193 111 -61 19 -211 25 -280 12z"/>
<path d="M1280 4720 l0 -80 240 0 240 0 0 80 0 80 -240 0 -240 0 0 -80z"/>
<path d="M2378 4715 c-2 -1 -35 -5 -73 -9 -126 -12 -167 -22 -257 -67 -60 -30
-165 -121 -186 -161 -8 -15 -29 -29 -57 -37 -84 -25 -206 -120 -267 -209 -32
-46 -76 -147 -87 -197 -3 -16 -5 -75 -5 -130 1 -92 6 -113 53 -256 50 -151 51
-157 37 -196 -15 -42 -15 -137 -1 -188 11 -40 51 -103 87 -138 36 -35 119 -74
173 -83 22 -3 41 -7 42 -8 1 -1 3 -51 4 -111 2 -126 17 -194 60 -274 51 -96
134 -171 235 -212 55 -23 55 -23 49 -59 -4 -19 -8 -41 -9 -49 -2 -9 -32 -20
-87 -32 -488 -101 -859 -481 -950 -974 -21 -116 -19 -292 5 -366 58 -183 207
-328 388 -376 l65 -17 6 -95 c5 -81 11 -104 39 -163 l34 -68 -798 0 -798 0 0
-80 0 -80 2480 0 2480 0 0 80 0 80 -799 0 -799 0 28 53 c15 28 32 68 36 87 4
19 9 38 10 43 1 4 2 38 3 75 l1 69 53 12 c121 27 248 111 318 211 85 122 109
208 104 375 -9 309 -129 581 -354 805 -175 174 -390 289 -619 331 -70 13 -73
14 -82 49 -16 58 -13 67 28 81 36 11 116 61 157 97 56 48 114 144 135 222 18
68 18 67 19 183 1 105 1 107 24 107 33 0 117 29 152 53 47 32 91 83 116 135
32 66 33 187 2 255 l-22 48 23 38 c67 105 97 210 101 351 6 198 -60 366 -200
505 -126 126 -206 164 -465 225 -157 37 -154 36 -217 46 -26 3 -57 9 -68 11
-21 6 -342 13 -347 8z"/>
<path d="M720 3840 l0 -400 80 0 80 0 0 400 0 400 -80 0 -80 0 0 -400z"/>
<path d="M4240 3600 l0 -480 80 0 80 0 0 480 0 480 -80 0 -80 0 0 -480z"/>
<path d="M570 3243 c-18 -68 -23 -70 -76 -45 -45 22 -47 22 -66 5 -35 -32
-210 -207 -250 -250 l-39 -42 20 -40 c12 -22 21 -44 21 -50 0 -5 -22 -17 -50
-27 l-50 -18 0 -216 0 -216 50 -18 c27 -10 50 -22 50 -27 0 -6 -9 -28 -21 -51
l-21 -40 29 -30 c33 -35 196 -198 246 -246 l35 -34 43 21 c23 12 46 21 50 21
4 0 15 -22 25 -50 l18 -50 217 0 217 0 17 50 c9 28 21 50 26 50 5 0 28 -9 50
-21 48 -24 31 -35 193 127 176 176 161 155 137 203 -12 22 -21 44 -21 50 0 5
23 17 50 27 l50 18 0 216 0 216 -50 18 c-27 10 -50 22 -50 27 0 5 9 28 21 52
l21 43 -152 152 -151 152 -37 -16 c-68 -30 -68 -30 -88 25 l-18 51 -218 0
-217 0 -11 -37z m337 -468 c41 -20 88 -69 110 -114 24 -50 24 -154 -1 -203
-42 -87 -118 -133 -216 -133 -74 0 -122 19 -168 66 -155 159 -36 420 183 404
33 -2 74 -11 92 -20z"/>
<path d="M4220 2863 c-128 -45 -211 -154 -216 -285 -4 -103 29 -186 102 -254
61 -57 118 -78 214 -78 100 0 160 23 225 89 65 65 89 125 89 225 1 94 -19 147
-78 213 -81 91 -224 129 -336 90z"/>
<path d="M3360 2560 l0 -80 240 0 240 0 0 80 0 80 -240 0 -240 0 0 -80z"/>
</g>
</svg>
